<?xml version="1.0" encoding="UTF-8" standalone="no"?>
<!-- Created with Inkscape (http://www.inkscape.org/) -->

<svg
   xmlns:dc="http://purl.org/dc/elements/1.1/"
   xmlns:cc="http://creativecommons.org/ns#"
   xmlns:rdf="http://www.w3.org/1999/02/22-rdf-syntax-ns#"
   xmlns:svg="http://www.w3.org/2000/svg"
   xmlns="http://www.w3.org/2000/svg"
   xmlns:sodipodi="http://sodipodi.sourceforge.net/DTD/sodipodi-0.dtd"
   xmlns:inkscape="http://www.inkscape.org/namespaces/inkscape"
   width="640"
   height="1136"
   viewBox="0 0 640.00001 1136"
   id="svg2"
   version="1.1"
   inkscape:version="0.91 r13725"
   sodipodi:docname="allonsywireframe2.svg">
  <defs
     id="defs4" />
  <sodipodi:namedview
     id="base"
     pagecolor="#ffffff"
     bordercolor="#666666"
     borderopacity="1.0"
     inkscape:pageopacity="0.0"
     inkscape:pageshadow="2"
     inkscape:zoom="0.49497475"
     inkscape:cx="151.78029"
     inkscape:cy="458.86605"
     inkscape:document-units="px"
     inkscape:current-layer="layer1"
     showgrid="true"
     units="px"
     showguides="false"
     inkscape:window-width="1440"
     inkscape:window-height="851"
     inkscape:window-x="0"
     inkscape:window-y="0"
     inkscape:window-maximized="1">
    <inkscape:grid
       type="xygrid"
       id="grid3336" />
  </sodipodi:namedview>
  <metadata
     id="metadata7">
    <rdf:RDF>
      <cc:Work
         rdf:about="">
        <dc:format>image/svg+xml</dc:format>
        <dc:type
           rdf:resource="http://purl.org/dc/dcmitype/StillImage" />
        <dc:title></dc:title>
      </cc:Work>
    </rdf:RDF>
  </metadata>
  <g
     inkscape:label="Layer 1"
     inkscape:groupmode="layer"
     id="layer1"
     transform="translate(0,83.637839)">
    <rect
       style="fill:#0000ff;fill-rule:evenodd;stroke:#000000;stroke-width:1px;stroke-linecap:butt;stroke-linejoin:miter;stroke-opacity:1"
       id="rect3338"
       width="640"
       height="60"
       x="0"
       y="-87.63784" />
    <circle
       style="fill:#ff0000;fill-rule:evenodd;stroke:#000000;stroke-width:1px;stroke-linecap:butt;stroke-linejoin:miter;stroke-opacity:1"
       id="path3340"
       cx="15"
       cy="-72.63784"
       r="5" />
    <circle
       style="fill:#ff0000;fill-rule:evenodd;stroke:#000000;stroke-width:1px;stroke-linecap:butt;stroke-linejoin:miter;stroke-opacity:1"
       id="path3342"
       cx="35"
       cy="-72.63784"
       r="5" />
    <circle
       style="fill:#ff0000;fill-rule:evenodd;stroke:#000000;stroke-width:1px;stroke-linecap:butt;stroke-linejoin:miter;stroke-opacity:1"
       id="path3344"
       cx="55"
       cy="-72.63784"
       r="5" />
    <circle
       style="fill:#ff0000;fill-rule:evenodd;stroke:#000000;stroke-width:1px;stroke-linecap:butt;stroke-linejoin:miter;stroke-opacity:1"
       id="path3346"
       cx="75"
       cy="-72.63784"
       r="5" />
    <circle
       style="fill:#ff0000;fill-rule:evenodd;stroke:#000000;stroke-width:1px;stroke-linecap:butt;stroke-linejoin:miter;stroke-opacity:1"
       id="path3348"
       cx="95"
       cy="-72.63784"
       r="5" />
    <text
       xml:space="preserve"
       style="font-style:normal;font-variant:normal;font-weight:normal;font-stretch:normal;font-size:20px;line-height:125%;font-family:sans-serif;-inkscape-font-specification:'sans-serif, Normal';text-align:start;letter-spacing:0px;word-spacing:0px;writing-mode:lr-tb;text-anchor:start;fill:#000000;fill-opacity:1;stroke:none;stroke-width:1px;stroke-linecap:butt;stroke-linejoin:miter;stroke-opacity:1"
       x="277.17261"
       y="-70.566772"
       id="text3350"
       sodipodi:linespacing="125%"><tspan
         sodipodi:role="line"
         id="tspan3352"
         x="277.17261"
         y="-70.566772">11:11 PM</tspan></text>
    <path
       style="fill:none;fill-rule:evenodd;stroke:#000000;stroke-width:1px;stroke-linecap:butt;stroke-linejoin:miter;stroke-opacity:1"
       d="m 140,-67.637839 c 0.13707,-0.08639 0.32481,-0.396241 0.4112,-0.259173 0.0864,0.137068 -0.33874,0.114256 -0.4112,0.259173 -0.61262,1.225234 -1.17301,2.482852 -1.6091,3.781437 -0.10719,0.3192 0.33672,1.010153 0,1.010153 -0.33672,0 -0.10719,-0.690953 0,-1.010153 0.43609,-1.298585 2.74889,-3.021579 1.6091,-3.781437 -1.37637,-0.917579 -3.00662,1.496818 -4.63956,1.761132 -0.33239,0.0538 0,-0.673435 0,-1.010152 0,-0.336718 -0.23809,-0.772058 0,-1.010153 0.2381,-0.238095 0.77206,0.238095 1.01015,0 0.2381,-0.238095 -0.33586,-1.034136 0,-1.010152 1.2784,0.09129 2.82877,0.26852 3.62941,1.269325 0.79206,0.990071 1.67168,3.644369 0.4112,3.781437 -1.26048,0.137068 -0.27413,-2.520958 -0.4112,-3.781437"
       id="path3354"
       inkscape:connector-curvature="0" />
    <path
       style="fill:none;fill-rule:evenodd;stroke:#000000;stroke-width:1px;stroke-linecap:butt;stroke-linejoin:miter;stroke-opacity:1"
       d="m 120,-67.637839 c 2.08969,-1.096543 4.23716,-2.089397 6.26907,-3.28963 1.27356,-0.752283 1.2225,-1.833758 2.0203,-3.030458 0.79243,-1.188643 2.23803,-1.841814 3.03046,-3.030458 0.18678,-0.280166 -0.23809,-0.772057 0,-1.010152 0.47619,-0.476191 1.54412,0.47619 2.02031,0 0.23809,-0.238095 -0.2381,-0.772058 0,-1.010153 0.23809,-0.238095 0.67343,0 1.01015,0 2.35702,0 4.71404,0 7.07107,0 1.68358,0 3.36717,0 5.05076,0 0.33672,0 0.77206,-0.238095 1.01015,0 0.2381,0.238095 -0.15058,0.708984 0,1.010153 0.21296,0.425917 0.7972,0.584235 1.01015,1.010152 0.15059,0.30117 -0.23809,0.772058 0,1.010153 0.2381,0.238095 0.77206,-0.238095 1.01016,0 0.23809,0.238095 -0.15059,0.708983 0,1.010152 0.21296,0.425918 0.79719,0.584235 1.01015,1.010153 0.40406,0.808122 -0.40406,2.222336 0,3.030458 0.21296,0.425917 0.85957,0.558398 1.01015,1.010152 0.21296,0.638877 0,1.34687 0,2.020305 0,0.336718 -0.15058,0.708983 0,1.010153 0.21296,0.425917 1.43724,1.220761 1.01015,1.010152 -0.92232,-0.454824 -1.68869,-1.174088 -2.53303,-1.761132"
       id="path3356"
       inkscape:connector-curvature="0" />
    <path
       style="fill:none;fill-rule:evenodd;stroke:#000000;stroke-width:1px;stroke-linecap:butt;stroke-linejoin:miter;stroke-opacity:1"
       d="m 130,-67.637839 c 5.75796,-7.873834 2.3334,-7.330241 7.38075,-7.330241 0.33671,0 1.01015,-0.336717 1.01015,0 0,0.336718 -1.34687,0 -1.01015,0 1.01015,0 2.0203,0 3.03045,0 0.33672,0 1.01016,-0.336717 1.01016,0 0,0.336718 -1.24825,-0.238095 -1.01016,0 0.5324,0.532398 1.48791,0.477756 2.02031,1.010153 0.23809,0.238095 -0.2381,0.772057 0,1.010152 2.69374,0 -0.33672,-0.336717 1.01015,1.010153 0.2381,0.238095 0.77206,-0.238095 1.01015,0 0.2381,0.238095 -0.23809,0.772057 0,1.010153 0.2381,0.238095 0.77206,-0.238096 1.01016,0 0.47619,0.47619 -0.47619,1.544114 0,2.020305 0.23809,0.238095 0.77205,-0.238096 1.01015,0 0.23809,0.238095 0,0.673435 0,1.010152 0,0.673435 0,1.34687 0,2.020305 0,0.617466 -0.16962,2.947059 1.01015,2.020305 1.19083,-0.935444 1.67849,-2.520958 2.51773,-3.781437"
       id="path3358"
       inkscape:connector-curvature="0" />
    <rect
       style="fill:#ffeeaa"
       id="rect3364"
       width="637.95508"
       height="302.42642"
       x="1.0224626"
       y="32.76825" />
    <rect
       style="fill:#ffeeaa"
       id="rect3366"
       width="263.83755"
       height="261.67371"
       x="36.551125"
       y="511.34689" />
    <text
       xml:space="preserve"
       style="font-style:normal;font-variant:normal;font-weight:normal;font-stretch:normal;font-size:50px;line-height:125%;font-family:sans-serif;-inkscape-font-specification:'sans-serif, Normal';text-align:start;letter-spacing:0px;word-spacing:0px;writing-mode:lr-tb;text-anchor:start;fill:#000000;fill-opacity:1;stroke:none;stroke-width:1px;stroke-linecap:butt;stroke-linejoin:miter;stroke-opacity:1"
       x="7.4300146"
       y="92.953903"
       id="text4194"
       sodipodi:linespacing="125%"><tspan
         sodipodi:role="line"
         id="tspan4196"
         x="7.4300146"
         y="92.953903">Travel Tip: April 20, 2015</tspan></text>
    <text
       xml:space="preserve"
       style="font-style:normal;font-variant:normal;font-weight:normal;font-stretch:normal;font-size:37.5px;line-height:125%;font-family:sans-serif;-inkscape-font-specification:'sans-serif, Normal';text-align:start;letter-spacing:0px;word-spacing:0px;writing-mode:lr;text-anchor:start;fill:#000000;fill-opacity:1;stroke:none;stroke-width:1px;stroke-linecap:butt;stroke-linejoin:miter;stroke-opacity:1;"
       x="11.02247"
       y="265.7095"
       id="text4198"
       sodipodi:linespacing="125%"><tspan
         sodipodi:role="line"
         id="tspan4310">When in Rome, the Romans can </tspan><tspan
         sodipodi:role="line"
         id="tspan4312">be assholes.</tspan></text>
    <text
       xml:space="preserve"
       style="font-style:normal;font-variant:normal;font-weight:normal;font-stretch:normal;font-size:50px;line-height:125%;font-family:sans-serif;-inkscape-font-specification:'sans-serif, Normal';text-align:start;letter-spacing:0px;word-spacing:0px;writing-mode:lr-tb;text-anchor:start;fill:#000000;fill-opacity:1;stroke:none;stroke-width:1px;stroke-linecap:butt;stroke-linejoin:miter;stroke-opacity:1"
       x="17.350136"
       y="473.96609"
       id="text4212"
       sodipodi:linespacing="125%"><tspan
         sodipodi:role="line"
         id="tspan4224"
         x="17.350136"
         y="473.96609">Countries 101</tspan></text>
    <rect
       style="fill:#37abc8"
       id="rect4292"
       width="640"
       height="60"
       x="-3.3306023e-08"
       y="-27.637836" />
    <text
       xml:space="preserve"
       style="font-style:normal;font-weight:normal;font-size:40px;line-height:125%;font-family:sans-serif;letter-spacing:0px;word-spacing:0px;fill:#000000;fill-opacity:1;stroke:none;stroke-width:1px;stroke-linecap:butt;stroke-linejoin:miter;stroke-opacity:1"
       x="20"
       y="12.362161"
       id="text4294"
       sodipodi:linespacing="125%"><tspan
         sodipodi:role="line"
         id="tspan4296"
         x="20"
         y="12.362161">Allons-y!</tspan></text>
    <rect
       style="fill:#333333"
       id="rect4298"
       width="65"
       height="7.3214288"
       x="545"
       y="-17.459267" />
    <rect
       y="12.005019"
       x="545"
       height="7.3214288"
       width="65"
       id="rect4300"
       style="fill:#333333" />
    <rect
       style="fill:#333333"
       id="rect4302"
       width="65"
       height="7.3214288"
       x="545.17853"
       y="-2.6378381" />
    <text
       xml:space="preserve"
       style="font-style:normal;font-weight:normal;font-size:40px;line-height:125%;font-family:sans-serif;letter-spacing:0px;word-spacing:0px;fill:#000000;fill-opacity:1;stroke:none;stroke-width:1px;stroke-linecap:butt;stroke-linejoin:miter;stroke-opacity:1"
       x="280"
       y="312.36215"
       id="text4314"
       sodipodi:linespacing="125%"><tspan
         sodipodi:role="line"
         id="tspan4316"
         x="280"
         y="312.36215">Read More...</tspan></text>
    <path
       style="fill:none;fill-rule:evenodd;stroke:#000000;stroke-width:1px;stroke-linecap:butt;stroke-linejoin:miter;stroke-opacity:1"
       d="m 280,312.36216 c 240,0 240,0 240,0 z"
       id="path4320"
       inkscape:connector-curvature="0" />
    <path
       style="fill:#ffeeaa"
       d="m 339.58677,642.90315 0,-129.28571 130.71429,0 130.71428,0 0,129.28571 0,129.28572 -130.71428,0 -130.71429,0 0,-129.28572 z"
       id="path4322"
       inkscape:connector-curvature="0" />
    <path
       style="fill:#ffeeaa"
       d="m 41.015342,942.18889 0,-130.00003 129.285718,0 129.28571,0 0,130.00003 0,130.00011 -129.28571,0 -129.285718,0 0,-130.00011 z"
       id="path4324"
       inkscape:connector-curvature="0" />
    <path
       style="fill:#ffeeaa"
       d="m 339.58677,942.90316 0,-130.7143 130,0 130,0 0,130.7143 0,130.71424 -130,0 -130,0 0,-130.71424 z"
       id="path4326"
       inkscape:connector-curvature="0" />
    <path
       style="fill:#ffeeaa"
       d="m 39.58677,1243.6175 0,-130 130,0 130,0 0,130 0,130 -130,0 -130,0 0,-130 z"
       id="path4328"
       inkscape:connector-curvature="0" />
    <path
       style="fill:#ffeeaa"
       d="m 341.01534,1241.4746 0,-129.2857 130,0 130,0 0,129.2857 0,129.2857 -130,0 -130,0 0,-129.2857 z"
       id="path4330"
       inkscape:connector-curvature="0" />
    <path
       inkscape:connector-curvature="0"
       id="path4332"
       d="m 341.01534,1842.1889 0,-130 130,0 130,0 0,130 0,130 -130,0 -130,0 0,-130 z"
       style="fill:#ffeeaa" />
    <path
       style="fill:#ffeeaa"
       d="m 341.01534,2142.1889 0,-130 130,0 130,0 0,130 0,130 -130,0 -130,0 0,-130 z"
       id="path4334"
       inkscape:connector-curvature="0" />
    <path
       inkscape:connector-curvature="0"
       id="path4336"
       d="m 339.58677,2442.1889 0,-130 130,0 130,0 0,130 0,130 -130,0 -130,0 0,-130 z"
       style="fill:#ffeeaa" />
    <path
       style="fill:#ffeeaa"
       d="m 339.58677,2740.7604 0,-130 130,0 130,0 0,130 0,130 -130,0 -130,0 0,-130 z"
       id="path4338"
       inkscape:connector-curvature="0" />
    <path
       inkscape:connector-curvature="0"
       id="path4340"
       d="m 36.974729,2442.1889 0,-130 130.000001,0 130,0 0,130 0,130 -130,0 -130.000001,0 0,-130 z"
       style="fill:#ffeeaa" />
    <path
       style="fill:#ffeeaa"
       d="m 39.586774,2743.6175 0,-130 129.999996,0 130,0 0,130 0,130 -130,0 -129.999996,0 0,-130 z"
       id="path4342"
       inkscape:connector-curvature="0" />
    <path
       inkscape:connector-curvature="0"
       id="path4344"
       d="m 39.58677,2143.6175 0,-130 130,0 130,0 0,130 0,130 -130,0 -130,0 0,-130 z"
       style="fill:#ffeeaa" />
    <path
       style="fill:#ffeeaa"
       d="m 39.58677,1843.6175 0,-130 130,0 130,0 0,130 0,130 -130,0 -130,0 0,-130 z"
       id="path4346"
       inkscape:connector-curvature="0" />
    <path
       inkscape:connector-curvature="0"
       id="path4348"
       d="m 338.1582,1540.7604 0,-130 130,0 130,0 0,130 0,130 -130,0 -130,0 0,-130 z"
       style="fill:#ffeeaa" />
    <path
       style="fill:#ffeeaa"
       d="m 41.015341,1542.1889 0,-130 129.999999,0 130,0 0,130 0,130 -130,0 -129.999999,0 0,-130 z"
       id="path4350"
       inkscape:connector-curvature="0" />
    <text
       xml:space="preserve"
       style="font-style:normal;font-weight:normal;font-size:40px;line-height:125%;font-family:sans-serif;letter-spacing:0px;word-spacing:0px;fill:#000000;fill-opacity:1;stroke:none;stroke-width:1px;stroke-linecap:butt;stroke-linejoin:miter;stroke-opacity:1"
       x="106.26397"
       y="754.38251"
       id="text4352"
       sodipodi:linespacing="125%"><tspan
         sodipodi:role="line"
         id="tspan4354"
         x="106.26397"
         y="754.38251">France</tspan></text>
    <text
       xml:space="preserve"
       style="font-style:normal;font-weight:normal;font-size:40px;line-height:125%;font-family:sans-serif;letter-spacing:0px;word-spacing:0px;fill:#000000;fill-opacity:1;stroke:none;stroke-width:1px;stroke-linecap:butt;stroke-linejoin:miter;stroke-opacity:1"
       x="426.46701"
       y="754.38251"
       id="text4356"
       sodipodi:linespacing="125%"><tspan
         sodipodi:role="line"
         id="tspan4358"
         x="426.46701"
         y="754.38251">Italy</tspan></text>
    <text
       xml:space="preserve"
       style="font-style:normal;font-weight:normal;font-size:40px;line-height:125%;font-family:sans-serif;letter-spacing:0px;word-spacing:0px;fill:#000000;fill-opacity:1;stroke:none;stroke-width:1px;stroke-linecap:butt;stroke-linejoin:miter;stroke-opacity:1"
       x="110.30457"
       y="1052.3622"
       id="text4360"
       sodipodi:linespacing="125%"><tspan
         sodipodi:role="line"
         id="tspan4362"
         x="110.30457"
         y="1052.3622">Spain</tspan></text>
    <text
       xml:space="preserve"
       style="font-style:normal;font-weight:normal;font-size:40px;line-height:125%;font-family:sans-serif;letter-spacing:0px;word-spacing:0px;fill:#000000;fill-opacity:1;stroke:none;stroke-width:1px;stroke-linecap:butt;stroke-linejoin:miter;stroke-opacity:1"
       x="380"
       y="1052.3622"
       id="text4364"
       sodipodi:linespacing="125%"><tspan
         sodipodi:role="line"
         id="tspan4366"
         x="380"
         y="1052.3622">Belgium</tspan></text>
    <text
       xml:space="preserve"
       style="font-style:normal;font-weight:normal;font-size:40px;line-height:125%;font-family:sans-serif;letter-spacing:0px;word-spacing:0px;fill:#000000;fill-opacity:1;stroke:none;stroke-width:1px;stroke-linecap:butt;stroke-linejoin:miter;stroke-opacity:1"
       x="120"
       y="1312.3622"
       id="text4368"
       sodipodi:linespacing="125%"><tspan
         sodipodi:role="line"
         id="tspan4370"
         x="120"
         y="1312.3622">The</tspan></text>
    <text
       xml:space="preserve"
       style="font-style:normal;font-weight:normal;font-size:40px;line-height:125%;font-family:sans-serif;letter-spacing:0px;word-spacing:0px;fill:#000000;fill-opacity:1;stroke:none;stroke-width:1px;stroke-linecap:butt;stroke-linejoin:miter;stroke-opacity:1"
       x="60"
       y="1352.3622"
       id="text4372"
       sodipodi:linespacing="125%"><tspan
         sodipodi:role="line"
         id="tspan4374"
         x="60"
         y="1352.3622">Netherlands</tspan></text>
    <text
       xml:space="preserve"
       style="font-style:normal;font-weight:normal;font-size:40px;line-height:125%;font-family:sans-serif;letter-spacing:0px;word-spacing:0px;fill:#000000;fill-opacity:1;stroke:none;stroke-width:1px;stroke-linecap:butt;stroke-linejoin:miter;stroke-opacity:1"
       x="400"
       y="1352.3622"
       id="text4376"
       sodipodi:linespacing="125%"><tspan
         sodipodi:role="line"
         id="tspan4378"
         x="400"
         y="1352.3622">Austria</tspan></text>
    <text
       xml:space="preserve"
       style="font-style:normal;font-weight:normal;font-size:40px;line-height:125%;font-family:sans-serif;letter-spacing:0px;word-spacing:0px;fill:#000000;fill-opacity:1;stroke:none;stroke-width:1px;stroke-linecap:butt;stroke-linejoin:miter;stroke-opacity:1"
       x="95.75634"
       y="1652.3622"
       id="text4380"
       sodipodi:linespacing="125%"><tspan
         sodipodi:role="line"
         id="tspan4382"
         x="95.75634"
         y="1652.3622">Greece</tspan></text>
    <text
       xml:space="preserve"
       style="font-style:normal;font-weight:normal;font-size:40px;line-height:125%;font-family:sans-serif;letter-spacing:0px;word-spacing:0px;fill:#000000;fill-opacity:1;stroke:none;stroke-width:1px;stroke-linecap:butt;stroke-linejoin:miter;stroke-opacity:1"
       x="380"
       y="1652.3622"
       id="text4384"
       sodipodi:linespacing="125%"><tspan
         sodipodi:role="line"
         id="tspan4386"
         x="380"
         y="1652.3622">Hungary</tspan></text>
    <text
       xml:space="preserve"
       style="font-style:normal;font-weight:normal;font-size:40px;line-height:125%;font-family:sans-serif;letter-spacing:0px;word-spacing:0px;fill:#000000;fill-opacity:1;stroke:none;stroke-width:1px;stroke-linecap:butt;stroke-linejoin:miter;stroke-opacity:1"
       x="131.91878"
       y="1872.3622"
       id="text4388"
       sodipodi:linespacing="125%"><tspan
         sodipodi:role="line"
         id="tspan4390"
         x="131.91878"
         y="1872.3622">The</tspan></text>
    <text
       xml:space="preserve"
       style="font-style:normal;font-weight:normal;font-size:40px;line-height:125%;font-family:sans-serif;letter-spacing:0px;word-spacing:0px;fill:#000000;fill-opacity:1;stroke:none;stroke-width:1px;stroke-linecap:butt;stroke-linejoin:miter;stroke-opacity:1"
       x="108.08122"
       y="1914.3824"
       id="text4392"
       sodipodi:linespacing="125%"><tspan
         sodipodi:role="line"
         id="tspan4394"
         x="108.08122"
         y="1914.3824">Czech</tspan></text>
    <text
       xml:space="preserve"
       style="font-style:normal;font-weight:normal;font-size:40px;line-height:125%;font-family:sans-serif;letter-spacing:0px;word-spacing:0px;fill:#000000;fill-opacity:1;stroke:none;stroke-width:1px;stroke-linecap:butt;stroke-linejoin:miter;stroke-opacity:1"
       x="86.060913"
       y="1952.3622"
       id="text4396"
       sodipodi:linespacing="125%"><tspan
         sodipodi:role="line"
         id="tspan4398"
         x="86.060913"
         y="1952.3622">Republic</tspan></text>
    <text
       xml:space="preserve"
       style="font-style:normal;font-weight:normal;font-size:40px;line-height:125%;font-family:sans-serif;letter-spacing:0px;word-spacing:0px;fill:#000000;fill-opacity:1;stroke:none;stroke-width:1px;stroke-linecap:butt;stroke-linejoin:miter;stroke-opacity:1"
       x="380"
       y="1952.3622"
       id="text4400"
       sodipodi:linespacing="125%"><tspan
         sodipodi:role="line"
         id="tspan4402"
         x="380"
         y="1952.3622">England</tspan></text>
    <text
       xml:space="preserve"
       style="font-style:normal;font-weight:normal;font-size:40px;line-height:125%;font-family:sans-serif;letter-spacing:0px;word-spacing:0px;fill:#000000;fill-opacity:1;stroke:none;stroke-width:1px;stroke-linecap:butt;stroke-linejoin:miter;stroke-opacity:1"
       x="80"
       y="2252.3621"
       id="text4404"
       sodipodi:linespacing="125%"><tspan
         sodipodi:role="line"
         id="tspan4406"
         x="80"
         y="2252.3621">Scotland</tspan></text>
    <text
       xml:space="preserve"
       style="font-style:normal;font-weight:normal;font-size:40px;line-height:125%;font-family:sans-serif;letter-spacing:0px;word-spacing:0px;fill:#000000;fill-opacity:1;stroke:none;stroke-width:1px;stroke-linecap:butt;stroke-linejoin:miter;stroke-opacity:1"
       x="400.20306"
       y="2254.3823"
       id="text4408"
       sodipodi:linespacing="125%"><tspan
         sodipodi:role="line"
         id="tspan4410"
         x="400.20306"
         y="2254.3823">Ireland</tspan></text>
    <text
       xml:space="preserve"
       style="font-style:normal;font-weight:normal;font-size:40px;line-height:125%;font-family:sans-serif;letter-spacing:0px;word-spacing:0px;fill:#000000;fill-opacity:1;stroke:none;stroke-width:1px;stroke-linecap:butt;stroke-linejoin:miter;stroke-opacity:1"
       x="106.26397"
       y="2550.3418"
       id="text4412"
       sodipodi:linespacing="125%"><tspan
         sodipodi:role="line"
         id="tspan4414"
         x="106.26397"
         y="2550.3418">Belize</tspan></text>
    <text
       xml:space="preserve"
       style="font-style:normal;font-weight:normal;font-size:40px;line-height:125%;font-family:sans-serif;letter-spacing:0px;word-spacing:0px;fill:#000000;fill-opacity:1;stroke:none;stroke-width:1px;stroke-linecap:butt;stroke-linejoin:miter;stroke-opacity:1"
       x="427.87814"
       y="2472.3621"
       id="text4416"
       sodipodi:linespacing="125%"><tspan
         sodipodi:role="line"
         id="tspan4418"
         x="427.87814"
         y="2472.3621">The</tspan></text>
    <text
       xml:space="preserve"
       style="font-style:normal;font-weight:normal;font-size:40px;line-height:125%;font-family:sans-serif;letter-spacing:0px;word-spacing:0px;fill:#000000;fill-opacity:1;stroke:none;stroke-width:1px;stroke-linecap:butt;stroke-linejoin:miter;stroke-opacity:1"
       x="366.06091"
       y="2512.3621"
       id="text4420"
       sodipodi:linespacing="125%"><tspan
         sodipodi:role="line"
         id="tspan4422"
         x="366.06091"
         y="2512.3621">Dominican</tspan></text>
    <text
       xml:space="preserve"
       style="font-style:normal;font-weight:normal;font-size:40px;line-height:125%;font-family:sans-serif;letter-spacing:0px;word-spacing:0px;fill:#000000;fill-opacity:1;stroke:none;stroke-width:1px;stroke-linecap:butt;stroke-linejoin:miter;stroke-opacity:1"
       x="386.26398"
       y="2554.3823"
       id="text4424"
       sodipodi:linespacing="125%"><tspan
         sodipodi:role="line"
         id="tspan4426"
         x="386.26398"
         y="2554.3823">Republic</tspan></text>
    <text
       xml:space="preserve"
       style="font-style:normal;font-weight:normal;font-size:40px;line-height:125%;font-family:sans-serif;letter-spacing:0px;word-spacing:0px;fill:#000000;fill-opacity:1;stroke:none;stroke-width:1px;stroke-linecap:butt;stroke-linejoin:miter;stroke-opacity:1"
       x="66.060913"
       y="2852.3621"
       id="text4428"
       sodipodi:linespacing="125%"><tspan
         sodipodi:role="line"
         id="tspan4430"
         x="66.060913"
         y="2852.3621">Costa Rica</tspan></text>
    <text
       xml:space="preserve"
       style="font-style:normal;font-weight:normal;font-size:40px;line-height:125%;font-family:sans-serif;letter-spacing:0px;word-spacing:0px;fill:#000000;fill-opacity:1;stroke:none;stroke-width:1px;stroke-linecap:butt;stroke-linejoin:miter;stroke-opacity:1"
       x="359.79694"
       y="2852.3621"
       id="text4432"
       sodipodi:linespacing="125%"><tspan
         sodipodi:role="line"
         id="tspan4434"
         x="359.79694"
         y="2852.3621">Guatemala</tspan></text>
  </g>
</svg>
